<?xml version="1.0" encoding="UTF-8" standalone="no"?>
<svg
   width="640"
   height="128"
   viewBox="0 0 169.33333 33.866668"
   version="1.1"
   id="svg843"
   inkscape:version="1.4.3 (0d15f75, 2025-12-25)"
   sodipodi:docname="hu-platform.svg"
   inkscape:export-filename="..\hu\hu-platform.png"
   inkscape:export-xdpi="96"
   inkscape:export-ydpi="96"
   xml:space="preserve"
   xmlns:inkscape="http://www.inkscape.org/namespaces/inkscape"
   xmlns:sodipodi="http://sodipodi.sourceforge.net/DTD/sodipodi-0.dtd"
   xmlns="http://www.w3.org/2000/svg"
   xmlns:svg="http://www.w3.org/2000/svg"
   xmlns:rdf="http://www.w3.org/1999/02/22-rdf-syntax-ns#"
   xmlns:cc="http://creativecommons.org/ns#"
   xmlns:dc="http://purl.org/dc/elements/1.1/"><defs
     id="defs837" /><sodipodi:namedview
     id="base"
     pagecolor="#ffffff"
     bordercolor="#666666"
     borderopacity="1.0"
     inkscape:pageopacity="0.0"
     inkscape:pageshadow="2"
     inkscape:zoom="0.56860746"
     inkscape:cx="232.14609"
     inkscape:cy="78.261372"
     inkscape:document-units="mm"
     inkscape:current-layer="g1"
     inkscape:document-rotation="0"
     showgrid="true"
     units="px"
     width="1122.5197px"
     showguides="false"
     inkscape:lockguides="false"
     inkscape:window-width="1280"
     inkscape:window-height="649"
     inkscape:window-x="-8"
     inkscape:window-y="-8"
     inkscape:window-maximized="1"
     inkscape:pagecheckerboard="0"
     inkscape:snap-midpoints="true"
     inkscape:showpageshadow="2"
     inkscape:deskcolor="#d1d1d1"><inkscape:grid
       type="xygrid"
       id="grid1406"
       originx="0"
       originy="0"
       spacingy="1"
       spacingx="1"
       units="px" /></sodipodi:namedview><metadata
     id="metadata840"><rdf:RDF><cc:Work
         rdf:about=""><dc:format>image/svg+xml</dc:format><dc:type
           rdf:resource="http://purl.org/dc/dcmitype/StillImage" /></cc:Work></rdf:RDF></metadata><g
     inkscape:label="Layer 1"
     inkscape:groupmode="layer"
     id="layer1"><rect
       style="opacity:0.999;fill:#000000;fill-opacity:1;stroke:none;stroke-width:2.06888398;-inkscape-stroke:none;stop-color:#000000;stroke-linejoin:round"
       id="rect950"
       width="169.2932"
       height="31.1807"
       x="0.020066779"
       y="2.6659" /><rect
       style="opacity:0.999;fill:#5da818;fill-opacity:1;stroke:none;stroke-width:0.00905642;-inkscape-stroke:none;stop-color:#000000"
       id="rect1"
       width="169.32167"
       height="2.6341672"
       x="0.0058330498"
       y="-2.6400003"
       transform="scale(1,-1)" /><g
       id="g1"
       transform="translate(-0.89775149,-0.26328662)"><text
         xml:space="preserve"
         style="font-size:11.9944px;line-height:1.25;font-family:Manrope;-inkscape-font-specification:Manrope;stroke-width:0.4327"
         x="4.1278191"
         y="15.173013"
         id="text2079"><tspan
           sodipodi:role="line"
           id="tspan2077"
           x="4.1278191"
           y="15.173013"
           style="font-style:normal;font-variant:normal;font-weight:normal;font-stretch:normal;font-size:11.9944px;font-family:Manrope;-inkscape-font-specification:Manrope;text-align:start;text-anchor:start;fill:#ffffff;fill-opacity:1;stroke-width:0.4327">Welcome to</tspan></text><text
         xml:space="preserve"
         style="font-size:11.9944px;line-height:1.25;font-family:Manrope;-inkscape-font-specification:Manrope;stroke-width:0.303667"
         x="3.4861281"
         y="28.152557"
         id="text2"><tspan
           sodipodi:role="line"
           id="tspan2"
           x="3.4861281"
           y="28.152557"
           style="font-style:normal;font-variant:normal;font-weight:bold;font-stretch:normal;font-size:11.9944px;font-family:Manrope;-inkscape-font-specification:'Manrope Bold';text-align:start;text-anchor:start;fill:#ffffff;fill-opacity:1;stroke-width:0.303667">Hughes</tspan></text></g><g
       id="g1-8"
       transform="matrix(2.2500001,0,0,2.2500001,-35.206143,-11.013198)"><rect
         style="fill:#64a82c;fill-opacity:1;stroke-width:0.943078;stroke-linejoin:round"
         id="rect1410"
         width="10.583333"
         height="10.583333"
         x="78.967255"
         y="7.7169766" /><path
         id="path0-6"
         d="m 80.78595,10.958647 -0.461917,0.464726 v 2.051428 2.051427 h 0.56181 0.56181 l 0.0027,-1.023781 0.0027,-1.023783 h 1.048092 1.048093 l 0.0027,1.023783 0.0027,1.023781 h 0.561833 0.561811 v -1.979709 -1.979708 l 0.08558,-0.08406 0.08554,-0.08406 h 0.50295 c 0.4862,0 0.503328,7.02e-4 0.514131,0.0209 0.0076,0.01419 0.01118,0.676237 0.01118,2.063772 v 2.042864 h 0.561864 0.561865 V 13.46902 c 0,-1.865959 0.0018,-2.057831 0.0171,-2.063773 0.0094,-0.0037 0.250383,-0.0065 0.535497,-0.0065 h 0.518429 l 0.356111,-0.356083 0.355892,-0.356108 v -0.09773 -0.09773 h -2.152887 -2.152939 l -0.46181,0.461916 -0.461781,0.461919 -0.0027,0.545656 -0.0027,0.545656 -0.967054,0.0029 -0.967055,0.0029 -0.07481,0.151355 c -0.04928,0.0997 -0.0778,0.146626 -0.08358,0.137548 -0.0049,-0.0076 -0.0088,-0.530449 -0.0089,-1.161871 l -1.48e-4,-1.148017 -0.09995,0.0014 -0.09995,0.0014 -0.461918,0.464726"
         stroke="none"
         fill="#fbfbfb"
         fill-rule="evenodd"
         style="stroke-width:0.0270127" /></g></g></svg>
